<svg xmlns="http://www.w3.org/2000/svg" xmlns:xlink="http://www.w3.org/1999/xlink" width="500" zoomAndPan="magnify" viewBox="0 0 375 374.999991" height="500" preserveAspectRatio="xMidYMid meet" version="1.0"><defs><g/><clipPath id="8bd66636df"><path d="M 144.597656 85 L 230.09375 85 L 230.09375 224.691406 L 144.597656 224.691406 Z M 144.597656 85 " clip-rule="nonzero"/></clipPath></defs><g clip-path="url(#8bd66636df)"><path fill="#52814f" d="M 189.640625 221.710938 L 189.597656 209.289062 C 189.5625 197.925781 187.699219 197.828125 195.355469 204.511719 C 196.410156 211.695312 198.691406 213.753906 197.617188 206.40625 C 202.101562 209.980469 204.351562 208.925781 200.269531 205.964844 C 199.273438 205.238281 198.167969 204.355469 196.960938 203.308594 C 196.929688 203.28125 196.902344 203.257812 196.871094 203.234375 L 196.820312 203.191406 C 191.144531 198.265625 189.871094 198.59375 189.605469 193.851562 C 189.320312 188.832031 192.925781 193.070312 197.511719 195.179688 L 198.863281 198.613281 C 199.96875 201.417969 201.816406 200.742188 200.757812 198.066406 L 200.0625 196.296875 C 200.597656 196.519531 201.132812 196.734375 201.667969 196.9375 C 202.851562 197.394531 204.035156 197.808594 205.214844 198.179688 C 206.019531 199.421875 206.722656 200.5625 207.3125 201.601562 C 207.433594 201.808594 207.542969 202.011719 207.652344 202.207031 C 210.378906 207.1875 211.589844 205.375 209.5 201.5 C 209.347656 201.21875 209.1875 200.933594 209.015625 200.632812 C 208.722656 200.121094 208.402344 199.578125 208.050781 199.007812 C 209.367188 199.351562 210.675781 199.648438 211.984375 199.890625 C 216.074219 200.65625 216.878906 198.808594 212.359375 197.964844 C 209.648438 197.460938 206.90625 196.71875 204.136719 195.75 C 204.359375 195.621094 204.570312 195.484375 204.769531 195.34375 C 205.160156 195.054688 205.503906 194.734375 205.800781 194.382812 C 207.296875 192.59375 207.304688 189.976562 204.144531 193.292969 C 203.984375 193.460938 203.804688 193.617188 203.609375 193.761719 C 203.042969 194.171875 202.328125 194.5 201.449219 194.742188 C 200.542969 194.378906 199.632812 193.988281 198.71875 193.574219 C 198.695312 193.5625 198.671875 193.554688 198.648438 193.542969 C 191.460938 190.277344 189.9375 190.621094 189.605469 186.816406 C 189.253906 182.804688 188.507812 181.832031 191.847656 182.273438 C 193.375 183.085938 194.484375 183.929688 195.179688 184.816406 C 195.195312 184.832031 195.210938 184.851562 195.226562 184.871094 C 195.546875 185.289062 195.773438 185.726562 195.902344 186.167969 C 197.332031 191.101562 198.542969 187.382812 197.605469 185.097656 C 197.40625 184.609375 197.128906 184.132812 196.769531 183.667969 C 196.753906 183.644531 196.738281 183.625 196.726562 183.605469 C 196.457031 183.261719 196.140625 182.925781 195.78125 182.601562 C 196.46875 182.617188 197.136719 182.617188 197.796875 182.589844 C 200.660156 184.128906 203.046875 185.707031 204.957031 187.324219 C 206.140625 188.328125 207.144531 189.347656 207.964844 190.375 C 211.570312 194.902344 212.019531 192.417969 209.667969 189.371094 C 209.371094 188.984375 209.042969 188.59375 208.699219 188.210938 C 209.761719 188.042969 210.820312 187.847656 211.871094 187.636719 L 213.492188 189.277344 C 216.96875 192.800781 218.34375 191.402344 215.121094 188.136719 L 214.136719 187.140625 C 215.140625 186.902344 216.136719 186.644531 217.125 186.371094 C 217.898438 187.125 218.777344 187.957031 219.707031 188.710938 C 223.09375 191.472656 226.28125 191.296875 221.433594 187.5625 C 221.308594 187.46875 221.183594 187.371094 221.054688 187.265625 C 220.503906 186.824219 219.914062 186.308594 219.289062 185.726562 C 220.582031 185.320312 221.867188 184.878906 223.144531 184.398438 C 228.433594 182.414062 227.527344 180.769531 221.269531 182.996094 C 218.246094 184.070312 215.160156 184.941406 212.015625 185.605469 L 211.96875 185.613281 C 210.320312 185.960938 208.660156 186.25 206.976562 186.484375 C 206.734375 186.261719 206.484375 186.042969 206.226562 185.824219 C 204.785156 184.605469 203.105469 183.414062 201.1875 182.253906 C 201.722656 182.167969 202.25 182.0625 202.765625 181.941406 C 203.546875 181.761719 204.308594 181.542969 205.046875 181.285156 C 207.128906 181.910156 208.941406 182.332031 210.476562 182.546875 C 214.917969 183.160156 218.714844 181.011719 212.257812 180.742188 C 211.796875 180.722656 211.292969 180.675781 210.746094 180.601562 C 209.898438 180.484375 208.957031 180.300781 207.929688 180.046875 C 214.253906 176.734375 215.757812 171.488281 210.425781 176.007812 C 208.105469 177.976562 205.40625 179.316406 202.332031 180.027344 C 200.972656 180.34375 199.542969 180.539062 198.039062 180.613281 C 198.003906 180.613281 197.972656 180.613281 197.9375 180.617188 C 193.78125 180.804688 190.402344 181.433594 189.652344 178.398438 C 189.035156 175.910156 193.90625 178.609375 198.175781 177.941406 C 199.925781 177.667969 201.707031 177.121094 203.511719 176.300781 C 208.855469 173.867188 211.613281 170.441406 202.734375 174.5 C 201.078125 175.257812 199.460938 175.757812 197.875 176.007812 C 192.953125 176.777344 190.046875 176.871094 189.554688 173.023438 C 189.285156 170.921875 192.402344 170.207031 194.035156 169.429688 L 199.160156 170.160156 C 199.699219 170.238281 200.195312 169.863281 200.269531 169.328125 C 200.347656 168.789062 199.972656 168.292969 199.4375 168.214844 L 197.390625 167.921875 C 198.328125 167.53125 199.273438 167.152344 200.226562 166.789062 L 206.195312 167.726562 C 206.730469 167.808594 207.230469 167.445312 207.3125 166.90625 C 207.394531 166.371094 207.03125 165.871094 206.496094 165.789062 L 204.132812 165.417969 L 204.308594 165.359375 C 206.230469 164.742188 208.191406 164.1875 210.179688 163.699219 C 210.207031 163.695312 210.238281 163.6875 210.265625 163.679688 C 211.351562 163.414062 212.441406 163.171875 213.546875 162.945312 L 217.070312 165.679688 C 217.5 166.011719 218.113281 165.933594 218.445312 165.503906 C 218.773438 165.074219 218.695312 164.457031 218.265625 164.128906 L 216.117188 162.460938 L 216.449219 162.402344 C 216.980469 162.3125 217.339844 161.804688 217.25 161.269531 C 217.160156 160.734375 216.652344 160.375 216.117188 160.464844 C 214.832031 160.683594 213.558594 160.933594 212.300781 161.203125 L 215.117188 157.265625 C 215.433594 156.824219 215.332031 156.207031 214.890625 155.894531 C 214.449219 155.578125 213.835938 155.679688 213.519531 156.121094 L 209.40625 161.875 C 208.722656 162.042969 208.050781 162.21875 207.375 162.402344 C 208.816406 160.769531 209.851562 159.226562 210.480469 157.777344 C 210.695312 157.277344 210.464844 156.703125 209.96875 156.488281 C 209.472656 156.273438 208.898438 156.503906 208.683594 157 C 207.84375 158.941406 206.113281 161.128906 203.492188 163.566406 C 201.929688 164.070312 200.386719 164.621094 198.871094 165.210938 C 199.058594 164.957031 199.230469 164.710938 199.386719 164.46875 C 200.242188 163.148438 200.617188 161.988281 200.507812 160.984375 C 200.449219 160.445312 199.96875 160.058594 199.429688 160.113281 C 198.890625 160.171875 198.5 160.652344 198.558594 161.191406 C 198.613281 161.734375 198.34375 162.472656 197.746094 163.398438 C 197.078125 164.429688 196.03125 165.628906 194.609375 167.003906 C 194.246094 167.167969 193.882812 167.332031 193.523438 167.503906 C 193.484375 167.519531 193.449219 167.535156 193.414062 167.554688 C 193.078125 167.710938 192.746094 167.871094 192.414062 168.035156 L 192.578125 167.789062 C 193.457031 166.457031 194.015625 165.214844 194.253906 164.066406 C 194.367188 163.535156 194.027344 163.015625 193.496094 162.902344 C 192.96875 162.792969 192.449219 163.132812 192.335938 163.664062 C 192.117188 164.71875 191.554688 165.800781 190.886719 166.796875 C 189.242188 169.253906 189.472656 168.875 189.460938 166.382812 L 189.445312 161.957031 C 189.433594 157.660156 189.59375 158.371094 193.476562 155.359375 C 200.773438 156.964844 203.113281 155.464844 195.617188 153.820312 C 196.886719 152.96875 198.207031 152.203125 199.582031 151.511719 C 199.613281 151.5 199.644531 151.484375 199.671875 151.464844 C 201.097656 150.753906 202.582031 150.125 204.121094 149.582031 C 212.28125 152.714844 216.832031 152.359375 207.152344 148.644531 C 216.441406 146.132812 210.558594 145.308594 203.882812 147.589844 C 203.84375 147.601562 203.804688 147.613281 203.769531 147.628906 C 202.910156 147.921875 202.070312 148.242188 201.242188 148.589844 C 201.417969 148.164062 201.558594 147.773438 201.667969 147.417969 C 202.257812 145.457031 201.421875 141.410156 199.785156 146.855469 C 199.554688 147.628906 199.113281 148.636719 198.464844 149.878906 C 197.382812 150.433594 196.328125 151.035156 195.304688 151.6875 C 195.398438 151.367188 195.480469 151.050781 195.550781 150.742188 C 196.3125 147.367188 195.34375 142.785156 193.640625 150.3125 C 193.410156 151.328125 193.019531 152.449219 192.460938 153.667969 C 189.582031 155.871094 189.425781 157.371094 189.414062 153.769531 C 189.398438 148.195312 187.820312 148.03125 191.363281 146.101562 C 192.183594 145.652344 192.988281 145.191406 193.777344 144.722656 C 194.828125 144.707031 195.71875 144.722656 196.441406 144.769531 C 201.03125 145.085938 199.707031 143.0625 196.765625 142.824219 C 197.457031 142.363281 198.125 141.890625 198.785156 141.410156 C 198.808594 141.390625 198.832031 141.375 198.859375 141.355469 L 199.128906 141.15625 C 201.792969 139.171875 204.195312 137.035156 206.339844 134.746094 C 207.027344 134.9375 207.714844 135.253906 208.398438 135.691406 L 208.398438 135.695312 C 216.03125 140.585938 212.816406 136.195312 209.457031 134.042969 L 209.453125 134.042969 C 208.765625 133.601562 208.070312 133.257812 207.367188 133.015625 C 207.761719 132.039062 208.007812 131.148438 208.101562 130.34375 C 208.324219 128.453125 207 122.890625 206.152344 130.121094 C 206.054688 130.964844 205.730469 131.960938 205.1875 133.105469 C 203.6875 134.738281 202.050781 136.289062 200.28125 137.757812 L 200.28125 137.734375 C 200.460938 135.613281 199.015625 129.226562 198.324219 137.570312 C 198.261719 138.34375 197.988281 139.125 197.511719 139.914062 C 195.035156 141.71875 192.328125 143.390625 189.398438 144.929688 L 189.355469 133.042969 C 189.34375 129.078125 188.671875 130.535156 191.730469 129.074219 C 192.289062 129.804688 192.855469 130.394531 193.421875 130.847656 C 195.003906 132.113281 199.636719 133.296875 194.640625 129.3125 C 194.261719 129.011719 193.878906 128.621094 193.496094 128.148438 C 194.253906 127.710938 195.003906 127.230469 195.738281 126.707031 C 202.117188 128.46875 203.667969 126.859375 197.675781 125.207031 C 198.335938 124.648438 198.988281 124.054688 199.625 123.425781 C 200.601562 123.515625 201.53125 123.539062 202.414062 123.492188 C 206.339844 123.289062 208.859375 121.191406 202.316406 121.53125 C 202.015625 121.546875 201.710938 121.554688 201.394531 121.550781 C 212.429688 109.03125 197.625 122.691406 196.347656 123.761719 L 196.339844 123.761719 C 196.324219 123.503906 196.308594 123.238281 196.300781 122.976562 C 196.050781 116.957031 194.148438 118.335938 194.339844 123.054688 C 194.371094 123.777344 194.425781 124.488281 194.503906 125.179688 C 192.847656 126.347656 191.128906 127.28125 189.339844 127.980469 C 189.316406 121.40625 187.578125 121.234375 191.839844 117.453125 C 200.183594 117.902344 203.1875 116.101562 193.925781 115.601562 C 201.8125 108.605469 197.546875 109.769531 190.875 115.691406 C 190.851562 115.707031 190.832031 115.726562 190.816406 115.742188 L 189.304688 117.085938 L 189.292969 114.171875 C 189.285156 111.183594 190.992188 108.945312 192.996094 106.742188 C 200.429688 98.558594 196.128906 100.082031 189.277344 108.902344 L 189.269531 107.035156 L 189.265625 105.640625 C 189.253906 101.609375 189.390625 102.421875 191.988281 99.105469 C 197.976562 99.535156 198.519531 97.605469 193.453125 97.238281 C 201.46875 87.007812 194.511719 92.703125 189.25 99.421875 C 189.242188 97.765625 189.238281 96.179688 189.230469 94.554688 C 189.226562 92.875 198.039062 81.652344 189.21875 91.449219 C 189.148438 78.578125 188.816406 89.957031 188.660156 94.597656 C 181.117188 85.707031 179.050781 86.304688 186.875 95.523438 C 188.15625 97.03125 188.601562 96.371094 188.550781 97.964844 L 188.472656 100.410156 L 188.453125 100.433594 C 188.328125 100.59375 188.261719 100.785156 188.246094 100.976562 L 185.429688 99.253906 C 183.308594 97.511719 181.878906 98.742188 185.867188 101.398438 C 187.75 102.652344 188.394531 102.898438 188.300781 105.992188 L 188.289062 106.359375 L 188.175781 110.140625 L 182.699219 106.300781 C 182.191406 97.800781 180.195312 97.328125 180.714844 105.976562 C 174.03125 106.855469 174.722656 108.746094 181.5 107.851562 C 184.230469 109.769531 188.15625 110.738281 188.046875 114.175781 L 187.902344 118.917969 L 184.113281 116.835938 C 182.78125 109.722656 180.554688 108.488281 181.890625 115.609375 C 175.164062 111.90625 175.382812 114.769531 182.460938 117.90625 C 187.957031 120.335938 187.882812 119.519531 187.621094 127.996094 L 180.085938 122.667969 C 177.6875 120.972656 177.042969 122.925781 178.367188 123.859375 C 170.617188 123.574219 174.355469 125.671875 181.296875 125.925781 L 186.195312 129.390625 L 186.398438 129.535156 C 187.140625 130.058594 187.535156 130.851562 187.507812 131.757812 L 187.488281 132.4375 L 187.472656 132.957031 L 187.367188 136.246094 L 178.351562 131.488281 C 173.847656 129.105469 173.296875 131.0625 176.046875 132.515625 C 175.097656 132.582031 174.242188 132.691406 173.480469 132.839844 C 172.601562 133.011719 171.832031 133.242188 171.175781 133.53125 C 168.949219 134.503906 167.328125 137.226562 172.082031 135.273438 C 172.578125 135.074219 173.167969 134.902344 173.859375 134.769531 C 178.492188 133.855469 187.402344 135.15625 187.21875 141.140625 L 187.082031 145.621094 L 184.777344 142.6875 C 184.761719 142.664062 184.746094 142.640625 184.726562 142.621094 L 180.558594 137.3125 C 180.222656 136.886719 179.605469 136.8125 179.179688 137.148438 C 178.753906 137.484375 178.683594 138.101562 179.015625 138.527344 L 182.65625 143.167969 C 182.359375 143.351562 181.96875 143.507812 181.484375 143.640625 C 181.382812 143.652344 181.28125 143.675781 181.183594 143.714844 C 180.476562 143.882812 179.597656 144.003906 178.542969 144.078125 C 177.804688 144.132812 176.988281 144.160156 176.097656 144.160156 C 172.832031 138.035156 170.746094 138.285156 173.855469 144.113281 C 171.960938 144.035156 169.800781 143.871094 167.378906 143.609375 C 165.113281 135.757812 163.226562 136.285156 165.492188 144.144531 C 160.039062 148.332031 161.382812 149.773438 166.902344 145.535156 C 169.277344 145.792969 171.410156 145.964844 173.308594 146.054688 C 169.875 149.71875 171.796875 150.539062 175.929688 146.125 C 176.9375 146.125 177.851562 146.097656 178.683594 146.039062 C 178.867188 146.027344 179.050781 146.011719 179.230469 145.992188 L 177.40625 148.300781 C 174.15625 152.394531 179.992188 148.195312 182.15625 145.464844 C 182.835938 145.261719 183.40625 145.007812 183.863281 144.703125 C 186.230469 147.71875 187.03125 147.296875 186.925781 150.648438 L 186.886719 151.921875 C 186.792969 155.054688 185.476562 154.003906 181.953125 154.019531 C 177.398438 150 175.316406 150.78125 178.980469 154.015625 C 178.570312 154.011719 178.15625 154.011719 177.746094 154.007812 L 176.640625 153.996094 C 170.707031 149.761719 166.390625 149.09375 173.175781 153.933594 C 161.6875 153.660156 167.488281 155.832031 176.265625 155.949219 C 176.292969 155.953125 176.324219 155.953125 176.351562 155.953125 L 176.945312 155.960938 C 171.355469 160.511719 174.621094 160.382812 180.023438 155.980469 C 180.519531 155.980469 181.011719 155.980469 181.507812 155.980469 C 181.558594 155.988281 181.609375 155.984375 181.664062 155.980469 C 186.074219 155.96875 186.804688 154.699219 186.683594 158.601562 L 186.398438 167.875 C 186.355469 169.234375 186.683594 170.28125 185.703125 168.792969 C 180.832031 161.402344 181.867188 166.535156 184.066406 169.875 C 184.121094 169.953125 184.175781 170.035156 184.230469 170.117188 C 183.898438 169.957031 183.566406 169.796875 183.234375 169.640625 C 183.199219 169.617188 183.160156 169.601562 183.121094 169.585938 C 182.757812 169.417969 182.398438 169.25 182.035156 169.085938 C 180.609375 167.714844 179.5625 166.511719 178.894531 165.484375 C 174.570312 158.808594 175.695312 164.148438 177.253906 166.550781 C 177.410156 166.789062 177.582031 167.039062 177.773438 167.292969 C 177.476562 167.179688 177.183594 167.066406 176.886719 166.953125 L 176.851562 166.941406 L 176.832031 166.933594 C 176.175781 166.6875 175.519531 166.453125 174.859375 166.222656 C 174.292969 166.023438 173.722656 165.832031 173.152344 165.648438 C 171.144531 163.785156 169.660156 162.066406 168.699219 160.492188 C 166.46875 156.847656 165.414062 158.679688 166.769531 161.070312 C 167.386719 162.160156 168.222656 163.300781 169.269531 164.484375 C 168.59375 164.300781 167.917969 164.125 167.238281 163.957031 C 162.074219 156.734375 158.339844 154.894531 164.34375 163.285156 C 159.433594 162.230469 157.460938 164.011719 160.527344 164.542969 C 155.570312 168.386719 157.820312 169.125 163.097656 165.03125 C 164.195312 165.253906 165.28125 165.496094 166.359375 165.761719 C 166.394531 165.773438 166.4375 165.78125 166.476562 165.789062 C 168.445312 166.269531 170.378906 166.816406 172.28125 167.421875 C 172.320312 167.4375 172.363281 167.453125 172.40625 167.464844 L 172.511719 167.5 C 165.019531 168.675781 170.078125 169.867188 176.417969 168.871094 C 177.371094 169.230469 178.316406 169.609375 179.25 170.003906 C 172.945312 170.902344 176.363281 172.398438 182.609375 171.507812 C 184.515625 172.417969 186.4375 172.632812 186.109375 174.679688 C 185.390625 179.183594 181.660156 179.179688 176.203125 180.597656 C 170.929688 176.679688 168.828125 177.5625 173.71875 181.195312 C 172.957031 181.367188 172.179688 181.527344 171.382812 181.683594 C 170.1875 180.800781 169.273438 180.152344 168.640625 179.734375 C 164.203125 176.820312 166.59375 180.671875 168.699219 182.160156 C 167.441406 182.367188 166.144531 182.550781 164.816406 182.71875 C 159.949219 177.441406 157.5625 177.746094 162.402344 182.996094 C 156.871094 183.578125 157.132812 185.480469 161.433594 185.070312 C 150.765625 193.199219 161.375 188.035156 164.878906 184.691406 C 165.980469 184.554688 167.054688 184.40625 168.105469 184.242188 C 167.839844 184.507812 167.585938 184.769531 167.335938 185.035156 C 163.402344 189.226562 163.335938 192.160156 168.765625 186.378906 C 169.621094 185.46875 170.566406 184.554688 171.597656 183.640625 C 173.070312 183.359375 174.488281 183.046875 175.859375 182.707031 C 176.742188 182.492188 177.605469 182.261719 178.445312 182.019531 C 175.570312 186.03125 178.078125 185.890625 181.558594 181.035156 C 186.742188 179.242188 185.789062 178.023438 186.179688 183.265625 C 186.394531 186.164062 186.480469 187.519531 183.242188 189.761719 L 181.699219 188.65625 C 177.625 185.746094 176.53125 187.375 180.054688 189.894531 L 181.488281 190.921875 C 180.890625 191.296875 180.296875 191.65625 179.695312 192 L 178 190.945312 C 175.460938 189.363281 174.59375 191.136719 176.78125 192.5 L 177.703125 193.070312 C 176.625 193.613281 175.539062 194.101562 174.453125 194.539062 C 173.796875 194.304688 173.1875 193.992188 172.609375 193.597656 C 172.285156 193.375 171.972656 193.125 171.671875 192.847656 C 168.664062 190.085938 168.148438 192.269531 170.316406 194.265625 C 170.691406 194.613281 171.085938 194.925781 171.496094 195.207031 C 171.621094 195.292969 171.746094 195.378906 171.875 195.457031 C 171.441406 195.59375 171 195.722656 170.566406 195.84375 C 169.9375 196.019531 169.304688 196.175781 168.671875 196.3125 C 167.515625 195.671875 166.515625 195.070312 165.667969 194.515625 C 161.90625 192.027344 161.492188 194.074219 164.371094 196.007812 C 164.765625 196.277344 165.199219 196.550781 165.660156 196.832031 C 164.46875 196.984375 163.316406 197.015625 162.113281 197.042969 L 160.230469 194.632812 C 158.050781 191.835938 156.507812 193.15625 158.46875 195.671875 L 159.5625 197.074219 L 159.5 197.074219 C 158.609375 197.03125 157.722656 196.953125 156.828125 196.84375 C 152.75 196.347656 153.050781 198.316406 156.101562 198.730469 C 156.4375 198.773438 156.78125 198.816406 157.117188 198.851562 L 156.042969 199.820312 C 153.492188 202.121094 154.839844 203.546875 157.296875 201.332031 L 159.832031 199.050781 C 160.722656 199.082031 161.609375 199.085938 162.496094 199.054688 C 161.953125 199.789062 161.507812 200.402344 161.15625 200.894531 C 159.074219 203.835938 160.457031 205.273438 162.828125 201.925781 C 163.363281 201.171875 164.109375 200.15625 165.066406 198.878906 C 166.378906 198.742188 167.6875 198.53125 168.984375 198.25 C 168.523438 198.984375 168.117188 199.726562 167.761719 200.484375 C 167.523438 201 167.308594 201.523438 167.117188 202.050781 C 165.667969 206.097656 166.613281 209.507812 168.894531 202.894531 C 169.078125 202.359375 169.292969 201.832031 169.535156 201.308594 C 170.144531 200.003906 170.941406 198.730469 171.925781 197.492188 C 173.359375 197.0625 174.785156 196.539062 176.199219 195.933594 C 176.078125 196.136719 175.960938 196.34375 175.851562 196.554688 C 175.507812 197.210938 175.230469 197.875 175.011719 198.558594 C 173.851562 202.160156 175.523438 204.410156 176.695312 199.777344 C 176.894531 198.984375 177.191406 198.214844 177.585938 197.460938 C 178.222656 196.242188 179.113281 195.066406 180.261719 193.929688 C 180.820312 193.617188 181.382812 193.289062 181.933594 192.949219 L 181.769531 194.046875 L 181.707031 194.464844 C 181.566406 195.386719 183.328125 196.867188 183.789062 193.816406 L 184.136719 191.523438 C 186.273438 190.0625 185.675781 190.300781 185.660156 193.09375 C 185.628906 198.585938 185.820312 198.742188 179.890625 203.363281 C 178.332031 204.578125 177.195312 205.304688 176.480469 205.539062 C 174.730469 206.109375 175.878906 208.902344 180.78125 205.160156 C 180.6875 205.738281 180.558594 206.253906 180.402344 206.710938 C 180.238281 207.183594 180.046875 207.589844 179.816406 207.921875 C 177.179688 211.785156 181.011719 210.949219 182.253906 207.347656 C 182.625 206.28125 182.84375 204.96875 182.921875 203.429688 C 186.785156 200.167969 185.328125 202.59375 185.171875 207.671875 L 184.738281 221.714844 L 147.742188 221.1875 L 147.214844 123.453125 C 175.261719 123.453125 170.953125 120.828125 145.90625 120.828125 L 144.597656 120.828125 L 144.597656 224.339844 L 186.046875 224.339844 C 186.542969 224.570312 187.117188 224.523438 187.664062 224.339844 L 230.089844 224.339844 L 230.089844 120.828125 L 228.78125 120.828125 C 209.390625 120.828125 205.550781 123.453125 227.46875 123.453125 L 227.46875 221.714844 L 189.640625 221.714844 Z M 189.640625 221.710938 " fill-opacity="1" fill-rule="evenodd"/></g><g fill="#000000" fill-opacity="1"><g transform="translate(168.029438, 276.570714)"><g><path d="M 3.265625 -39.984375 L 15.21875 -39.984375 L 15.21875 -36.078125 L 7.96875 -36.078125 L 7.96875 -22.40625 L 14.84375 -22.40625 L 14.84375 -18.5 L 7.96875 -18.5 L 7.96875 -3.90625 L 15.3125 -3.90625 L 15.3125 0 L 3.265625 0 Z M 3.265625 -39.984375 "/></g></g></g><g fill="#000000" fill-opacity="1"><g transform="translate(185.548293, 276.570714)"><g><path d="M 2.8125 -28.671875 C 2.8125 -34.546875 4.207031 -38.195312 7 -39.625 C 8.09375 -40.164062 9.289062 -40.445312 10.59375 -40.46875 C 13.03125 -40.46875 14.789062 -39.945312 15.875 -38.90625 C 16.96875 -37.875 17.671875 -36.503906 17.984375 -34.796875 C 18.304688 -33.085938 18.46875 -31.015625 18.46875 -28.578125 L 18.46875 -25.5 L 13.921875 -25.5 L 13.921875 -30.6875 C 13.921875 -32.738281 13.710938 -34.203125 13.296875 -35.078125 C 12.878906 -35.953125 12.0625 -36.390625 10.84375 -36.390625 C 9.625 -36.390625 8.765625 -35.835938 8.265625 -34.734375 C 7.765625 -33.628906 7.515625 -31.675781 7.515625 -28.875 L 7.515625 -12.0625 C 7.515625 -8.863281 7.734375 -6.640625 8.171875 -5.390625 C 8.617188 -4.140625 9.488281 -3.515625 10.78125 -3.515625 C 12.070312 -3.515625 12.957031 -4.160156 13.4375 -5.453125 C 13.914062 -6.742188 14.15625 -8.976562 14.15625 -12.15625 L 14.15625 -17.359375 L 10.90625 -17.359375 L 10.90625 -21 L 18.46875 -21 L 18.46875 0 L 16 0 L 15.359375 -3.09375 C 14.460938 -0.769531 12.753906 0.390625 10.234375 0.390625 C 7.710938 0.390625 5.84375 -0.585938 4.625 -2.546875 C 3.414062 -4.515625 2.8125 -7.632812 2.8125 -11.90625 Z M 2.8125 -28.671875 "/></g></g></g><g fill="#000000" fill-opacity="1"><g transform="translate(136.398797, 291.705888)"><g><path d="M 0.203125 -6.546875 L 0.203125 -8.046875 L 6.15625 -8.046875 L 6.15625 -6.546875 L 4.015625 -6.546875 L 4.015625 0 L 2.359375 0 L 2.359375 -6.546875 Z M 0.203125 -6.546875 "/></g></g></g><g fill="#000000" fill-opacity="1"><g transform="translate(144.649643, 291.705888)"><g><path d="M 7.59375 -0.25 L 7.59375 -0.015625 L 5.75 -0.015625 L 4.09375 -2.671875 L 2.671875 -2.671875 L 2.671875 -0.015625 L 0.9375 -0.015625 L 0.9375 -8.046875 C 1.507812 -8.046875 2.082031 -8.046875 2.65625 -8.046875 C 3.226562 -8.054688 3.800781 -8.054688 4.375 -8.046875 C 4.988281 -8.046875 5.503906 -7.914062 5.921875 -7.65625 C 6.347656 -7.394531 6.671875 -7.050781 6.890625 -6.625 C 7.109375 -6.207031 7.21875 -5.765625 7.21875 -5.296875 C 7.21875 -4.785156 7.09375 -4.316406 6.84375 -3.890625 C 6.59375 -3.472656 6.238281 -3.148438 5.78125 -2.921875 Z M 4.359375 -4.078125 C 4.722656 -4.078125 5.015625 -4.195312 5.234375 -4.4375 C 5.453125 -4.6875 5.554688 -4.984375 5.546875 -5.328125 C 5.546875 -5.660156 5.441406 -5.945312 5.234375 -6.1875 C 5.023438 -6.425781 4.734375 -6.546875 4.359375 -6.546875 L 2.640625 -6.546875 L 2.640625 -4.078125 Z M 4.359375 -4.078125 "/></g></g></g><g fill="#000000" fill-opacity="1"><g transform="translate(154.472255, 291.705888)"><g><path d="M 5.859375 -6.53125 L 2.671875 -6.53125 L 2.671875 -4.90625 L 5.65625 -4.90625 L 5.65625 -3.40625 L 2.671875 -3.40625 L 2.671875 -1.5625 L 5.953125 -1.5625 L 5.953125 0 L 0.9375 0 L 0.9375 -8.046875 L 5.859375 -8.046875 Z M 5.859375 -6.53125 "/></g></g></g><g fill="#000000" fill-opacity="1"><g transform="translate(162.92961, 291.705888)"><g><path d="M 5.859375 -6.53125 L 2.671875 -6.53125 L 2.671875 -4.90625 L 5.65625 -4.90625 L 5.65625 -3.40625 L 2.671875 -3.40625 L 2.671875 -1.5625 L 5.953125 -1.5625 L 5.953125 0 L 0.9375 0 L 0.9375 -8.046875 L 5.859375 -8.046875 Z M 5.859375 -6.53125 "/></g></g></g><g fill="#000000" fill-opacity="1"><g transform="translate(171.386965, 291.705888)"><g/></g></g><g fill="#000000" fill-opacity="1"><g transform="translate(176.092752, 291.705888)"><g><path d="M 6.875 -5.65625 C 6.875 -5.363281 6.800781 -5.082031 6.65625 -4.8125 C 6.519531 -4.539062 6.328125 -4.328125 6.078125 -4.171875 C 6.453125 -4.015625 6.734375 -3.78125 6.921875 -3.46875 C 7.117188 -3.15625 7.21875 -2.789062 7.21875 -2.375 C 7.21875 -1.675781 6.992188 -1.101562 6.546875 -0.65625 C 6.097656 -0.21875 5.472656 0 4.671875 0 L 0.9375 0 L 0.9375 -8.03125 L 4.359375 -8.03125 C 4.847656 -8.03125 5.28125 -7.9375 5.65625 -7.75 C 6.03125 -7.5625 6.328125 -7.289062 6.546875 -6.9375 C 6.765625 -6.582031 6.875 -6.15625 6.875 -5.65625 Z M 2.65625 -6.5625 L 2.65625 -4.734375 L 4.21875 -4.734375 C 4.507812 -4.734375 4.738281 -4.804688 4.90625 -4.953125 C 5.082031 -5.109375 5.175781 -5.320312 5.1875 -5.59375 C 5.195312 -5.882812 5.113281 -6.117188 4.9375 -6.296875 C 4.757812 -6.472656 4.519531 -6.5625 4.21875 -6.5625 Z M 2.65625 -3.328125 L 2.65625 -1.5 L 4.5625 -1.5 C 4.851562 -1.5 5.082031 -1.578125 5.25 -1.734375 C 5.414062 -1.890625 5.507812 -2.101562 5.53125 -2.375 C 5.53125 -2.539062 5.5 -2.691406 5.4375 -2.828125 C 5.382812 -2.972656 5.296875 -3.085938 5.171875 -3.171875 C 5.066406 -3.234375 4.957031 -3.273438 4.84375 -3.296875 C 4.726562 -3.316406 4.609375 -3.328125 4.484375 -3.328125 Z M 2.65625 -3.328125 "/></g></g></g><g fill="#000000" fill-opacity="1"><g transform="translate(185.697377, 291.705888)"><g><path d="M 2.34375 -1.328125 L 1.71875 0 L -0.0625 0 L -0.0625 -0.234375 L 3.625 -8.109375 L 4.421875 -8.109375 L 8.09375 -0.234375 L 8.09375 0 L 6.3125 0 L 5.6875 -1.328125 Z M 2.90625 -2.78125 L 5.140625 -2.78125 L 4.015625 -5.4375 Z M 2.90625 -2.78125 "/></g></g></g><g fill="#000000" fill-opacity="1"><g transform="translate(195.623238, 291.705888)"><g><path d="M 7.59375 -0.25 L 7.59375 -0.015625 L 5.75 -0.015625 L 4.09375 -2.671875 L 2.671875 -2.671875 L 2.671875 -0.015625 L 0.9375 -0.015625 L 0.9375 -8.046875 C 1.507812 -8.046875 2.082031 -8.046875 2.65625 -8.046875 C 3.226562 -8.054688 3.800781 -8.054688 4.375 -8.046875 C 4.988281 -8.046875 5.503906 -7.914062 5.921875 -7.65625 C 6.347656 -7.394531 6.671875 -7.050781 6.890625 -6.625 C 7.109375 -6.207031 7.21875 -5.765625 7.21875 -5.296875 C 7.21875 -4.785156 7.09375 -4.316406 6.84375 -3.890625 C 6.59375 -3.472656 6.238281 -3.148438 5.78125 -2.921875 Z M 4.359375 -4.078125 C 4.722656 -4.078125 5.015625 -4.195312 5.234375 -4.4375 C 5.453125 -4.6875 5.554688 -4.984375 5.546875 -5.328125 C 5.546875 -5.660156 5.441406 -5.945312 5.234375 -6.1875 C 5.023438 -6.425781 4.734375 -6.546875 4.359375 -6.546875 L 2.640625 -6.546875 L 2.640625 -4.078125 Z M 4.359375 -4.078125 "/></g></g></g><g fill="#000000" fill-opacity="1"><g transform="translate(205.44585, 291.705888)"><g><path d="M 7.59375 -0.25 L 7.59375 -0.015625 L 5.75 -0.015625 L 4.09375 -2.671875 L 2.671875 -2.671875 L 2.671875 -0.015625 L 0.9375 -0.015625 L 0.9375 -8.046875 C 1.507812 -8.046875 2.082031 -8.046875 2.65625 -8.046875 C 3.226562 -8.054688 3.800781 -8.054688 4.375 -8.046875 C 4.988281 -8.046875 5.503906 -7.914062 5.921875 -7.65625 C 6.347656 -7.394531 6.671875 -7.050781 6.890625 -6.625 C 7.109375 -6.207031 7.21875 -5.765625 7.21875 -5.296875 C 7.21875 -4.785156 7.09375 -4.316406 6.84375 -3.890625 C 6.59375 -3.472656 6.238281 -3.148438 5.78125 -2.921875 Z M 4.359375 -4.078125 C 4.722656 -4.078125 5.015625 -4.195312 5.234375 -4.4375 C 5.453125 -4.6875 5.554688 -4.984375 5.546875 -5.328125 C 5.546875 -5.660156 5.441406 -5.945312 5.234375 -6.1875 C 5.023438 -6.425781 4.734375 -6.546875 4.359375 -6.546875 L 2.640625 -6.546875 L 2.640625 -4.078125 Z M 4.359375 -4.078125 "/></g></g></g><g fill="#000000" fill-opacity="1"><g transform="translate(215.268462, 291.705888)"><g><path d="M 4.515625 -1.359375 L 4.515625 0 L 0.515625 0 L 0.515625 -1.359375 L 1.65625 -1.359375 L 1.65625 -6.703125 L 0.609375 -6.703125 L 0.609375 -8.046875 L 4.421875 -8.046875 L 4.421875 -6.703125 L 3.375 -6.703125 L 3.375 -1.359375 Z M 4.515625 -1.359375 "/></g></g></g><g fill="#000000" fill-opacity="1"><g transform="translate(222.188475, 291.705888)"><g><path d="M 5.859375 -6.53125 L 2.671875 -6.53125 L 2.671875 -4.90625 L 5.65625 -4.90625 L 5.65625 -3.40625 L 2.671875 -3.40625 L 2.671875 -1.5625 L 5.953125 -1.5625 L 5.953125 0 L 0.9375 0 L 0.9375 -8.046875 L 5.859375 -8.046875 Z M 5.859375 -6.53125 "/></g></g></g><g fill="#000000" fill-opacity="1"><g transform="translate(230.64583, 291.705888)"><g><path d="M 7.59375 -0.25 L 7.59375 -0.015625 L 5.75 -0.015625 L 4.09375 -2.671875 L 2.671875 -2.671875 L 2.671875 -0.015625 L 0.9375 -0.015625 L 0.9375 -8.046875 C 1.507812 -8.046875 2.082031 -8.046875 2.65625 -8.046875 C 3.226562 -8.054688 3.800781 -8.054688 4.375 -8.046875 C 4.988281 -8.046875 5.503906 -7.914062 5.921875 -7.65625 C 6.347656 -7.394531 6.671875 -7.050781 6.890625 -6.625 C 7.109375 -6.207031 7.21875 -5.765625 7.21875 -5.296875 C 7.21875 -4.785156 7.09375 -4.316406 6.84375 -3.890625 C 6.59375 -3.472656 6.238281 -3.148438 5.78125 -2.921875 Z M 4.359375 -4.078125 C 4.722656 -4.078125 5.015625 -4.195312 5.234375 -4.4375 C 5.453125 -4.6875 5.554688 -4.984375 5.546875 -5.328125 C 5.546875 -5.660156 5.441406 -5.945312 5.234375 -6.1875 C 5.023438 -6.425781 4.734375 -6.546875 4.359375 -6.546875 L 2.640625 -6.546875 L 2.640625 -4.078125 Z M 4.359375 -4.078125 "/></g></g></g></svg>