<svg xmlns="http://www.w3.org/2000/svg" xmlns:xlink="http://www.w3.org/1999/xlink" width="500" zoomAndPan="magnify" viewBox="0 0 375 374.999991" height="500" preserveAspectRatio="xMidYMid meet" version="1.0"><defs><g/><clipPath id="91a55d2234"><path d="M 121.382812 12 L 269.125 12 L 269.125 252 L 121.382812 252 Z M 121.382812 12 " clip-rule="nonzero"/></clipPath><clipPath id="729463e816"><rect x="0" width="69" y="0" height="118"/></clipPath><clipPath id="9e6dc9f1a1"><path d="M 1 0.320312 L 12 0.320312 L 12 15 L 1 15 Z M 1 0.320312 " clip-rule="nonzero"/></clipPath><clipPath id="d3cb36f1a0"><path d="M 17 0.320312 L 29 0.320312 L 29 15 L 17 15 Z M 17 0.320312 " clip-rule="nonzero"/></clipPath><clipPath id="2c5ec337d0"><path d="M 33 0.320312 L 43 0.320312 L 43 15 L 33 15 Z M 33 0.320312 " clip-rule="nonzero"/></clipPath><clipPath id="a0375df7cf"><path d="M 48 0.320312 L 58 0.320312 L 58 15 L 48 15 Z M 48 0.320312 " clip-rule="nonzero"/></clipPath><clipPath id="fbe6dcedef"><path d="M 71 0.320312 L 82 0.320312 L 82 15 L 71 15 Z M 71 0.320312 " clip-rule="nonzero"/></clipPath><clipPath id="9bee3090b9"><path d="M 85 0.320312 L 100 0.320312 L 100 15 L 85 15 Z M 85 0.320312 " clip-rule="nonzero"/></clipPath><clipPath id="f0f7094ae7"><path d="M 104 0.320312 L 117 0.320312 L 117 15 L 104 15 Z M 104 0.320312 " clip-rule="nonzero"/></clipPath><clipPath id="6637810276"><path d="M 121 0.320312 L 134 0.320312 L 134 15 L 121 15 Z M 121 0.320312 " clip-rule="nonzero"/></clipPath><clipPath id="0dd1402c9e"><path d="M 137 0.320312 L 145 0.320312 L 145 15 L 137 15 Z M 137 0.320312 " clip-rule="nonzero"/></clipPath><clipPath id="7ba95ec4eb"><path d="M 150 0.320312 L 160 0.320312 L 160 15 L 150 15 Z M 150 0.320312 " clip-rule="nonzero"/></clipPath><clipPath id="e160c1a64a"><path d="M 164 0.320312 L 177 0.320312 L 177 15 L 164 15 Z M 164 0.320312 " clip-rule="nonzero"/></clipPath><clipPath id="4b70d8d8f4"><rect x="0" width="182" y="0" height="20"/></clipPath></defs><g clip-path="url(#91a55d2234)"><path fill="#52814f" d="M 199.214844 246.871094 L 199.144531 225.464844 C 199.078125 205.882812 195.867188 205.714844 209.09375 217.234375 C 210.914062 229.609375 214.859375 233.152344 213 220.496094 C 220.75 226.652344 224.636719 224.839844 217.585938 219.734375 C 215.863281 218.480469 213.949219 216.960938 211.863281 215.160156 C 211.816406 215.113281 211.765625 215.066406 211.710938 215.027344 L 211.625 214.953125 C 201.816406 206.464844 199.613281 207.035156 199.152344 198.859375 C 198.664062 190.214844 204.894531 197.511719 212.816406 201.152344 L 215.15625 207.066406 C 217.066406 211.902344 220.253906 210.738281 218.429688 206.128906 L 217.226562 203.074219 C 218.152344 203.457031 219.074219 203.828125 220 204.179688 C 222.050781 204.964844 224.09375 205.679688 226.128906 206.324219 C 227.523438 208.457031 228.734375 210.421875 229.757812 212.21875 C 229.960938 212.578125 230.152344 212.925781 230.339844 213.261719 C 235.050781 221.84375 237.148438 218.714844 233.53125 212.042969 C 233.269531 211.558594 232.992188 211.0625 232.699219 210.550781 C 232.195312 209.664062 231.636719 208.726562 231.03125 207.746094 C 233.304688 208.339844 235.570312 208.847656 237.824219 209.269531 C 244.894531 210.589844 246.285156 207.402344 238.476562 205.949219 C 233.789062 205.078125 229.054688 203.804688 224.269531 202.136719 C 224.652344 201.914062 225.015625 201.679688 225.359375 201.429688 C 226.039062 200.933594 226.628906 200.382812 227.140625 199.777344 C 229.730469 196.695312 229.738281 192.1875 224.277344 197.898438 C 224.003906 198.1875 223.695312 198.457031 223.355469 198.703125 C 222.378906 199.417969 221.140625 199.984375 219.625 200.394531 C 218.054688 199.769531 216.484375 199.09375 214.902344 198.386719 C 214.863281 198.363281 214.820312 198.347656 214.78125 198.332031 C 202.363281 192.703125 199.734375 193.292969 199.15625 186.738281 C 198.550781 179.828125 197.257812 178.148438 203.035156 178.914062 C 205.667969 180.308594 207.589844 181.765625 208.789062 183.292969 C 208.816406 183.324219 208.84375 183.355469 208.867188 183.382812 C 209.425781 184.109375 209.816406 184.859375 210.039062 185.621094 C 212.507812 194.125 214.597656 187.714844 212.984375 183.78125 C 212.640625 182.9375 212.15625 182.113281 211.539062 181.3125 C 211.511719 181.273438 211.484375 181.242188 211.460938 181.207031 C 210.992188 180.613281 210.449219 180.035156 209.832031 179.476562 C 211.015625 179.503906 212.171875 179.5 213.3125 179.457031 C 218.257812 182.105469 222.386719 184.828125 225.6875 187.617188 C 227.730469 189.347656 229.464844 191.097656 230.886719 192.867188 C 237.117188 200.667969 237.890625 196.394531 233.828125 191.140625 C 233.308594 190.472656 232.75 189.800781 232.152344 189.140625 C 233.988281 188.851562 235.820312 188.519531 237.632812 188.15625 L 240.433594 190.980469 C 246.4375 197.050781 248.816406 194.644531 243.25 189.015625 L 241.550781 187.296875 C 243.28125 186.890625 245.003906 186.445312 246.710938 185.972656 C 248.046875 187.273438 249.570312 188.703125 251.175781 190.007812 C 257.03125 194.761719 262.535156 194.460938 254.15625 188.027344 C 253.941406 187.863281 253.722656 187.695312 253.503906 187.515625 C 252.554688 186.753906 251.535156 185.867188 250.449219 184.863281 C 252.6875 184.164062 254.910156 183.402344 257.113281 182.574219 C 266.253906 179.152344 264.6875 176.316406 253.871094 180.152344 C 248.648438 182.003906 243.316406 183.507812 237.882812 184.648438 L 237.84375 184.660156 L 237.804688 184.667969 C 234.957031 185.265625 232.082031 185.761719 229.179688 186.167969 C 228.761719 185.785156 228.324219 185.40625 227.875 185.027344 C 225.386719 182.925781 222.484375 180.878906 219.171875 178.878906 C 220.097656 178.726562 221.007812 178.546875 221.902344 178.339844 C 223.25 178.027344 224.566406 177.652344 225.84375 177.210938 C 229.4375 178.289062 232.570312 179.007812 235.226562 179.378906 C 242.898438 180.441406 249.457031 176.738281 238.300781 176.273438 C 237.503906 176.238281 236.632812 176.160156 235.691406 176.03125 C 234.226562 175.828125 232.601562 175.507812 230.820312 175.074219 C 241.75 169.363281 244.347656 160.328125 235.136719 168.113281 C 231.125 171.503906 226.460938 173.8125 221.148438 175.042969 C 218.800781 175.585938 216.328125 175.921875 213.726562 176.046875 C 213.671875 176.046875 213.613281 176.050781 213.554688 176.058594 C 206.375 176.378906 200.535156 177.460938 199.234375 172.234375 C 198.167969 167.945312 206.585938 172.597656 213.96875 171.445312 C 216.992188 170.972656 220.066406 170.03125 223.1875 168.617188 C 232.421875 164.429688 237.191406 158.523438 221.84375 165.515625 C 218.984375 166.820312 216.1875 167.6875 213.449219 168.113281 C 204.945312 169.4375 199.917969 169.597656 199.066406 162.972656 C 198.601562 159.347656 203.988281 158.117188 206.808594 156.78125 L 215.671875 158.039062 C 216.597656 158.171875 217.457031 157.527344 217.585938 156.601562 C 217.714844 155.675781 217.074219 154.816406 216.148438 154.6875 L 212.609375 154.183594 C 214.230469 153.503906 215.863281 152.851562 217.507812 152.230469 L 227.828125 153.84375 C 228.75 153.988281 229.613281 153.355469 229.757812 152.429688 C 229.902344 151.507812 229.269531 150.648438 228.347656 150.503906 L 224.261719 149.863281 L 224.523438 149.777344 L 224.5625 149.765625 C 227.890625 148.699219 231.273438 147.746094 234.710938 146.90625 C 234.761719 146.898438 234.8125 146.886719 234.859375 146.875 C 236.734375 146.417969 238.617188 145.996094 240.527344 145.609375 L 246.617188 150.316406 C 247.359375 150.886719 248.421875 150.753906 248.992188 150.011719 C 249.5625 149.273438 249.425781 148.210938 248.6875 147.644531 L 244.96875 144.769531 L 245.542969 144.667969 C 246.464844 144.511719 247.082031 143.636719 246.925781 142.714844 C 246.769531 141.792969 245.894531 141.175781 244.972656 141.332031 C 242.75 141.710938 240.550781 142.136719 238.375 142.601562 L 243.242188 135.820312 C 243.789062 135.058594 243.613281 133.996094 242.851562 133.453125 C 242.089844 132.910156 241.03125 133.082031 240.480469 133.84375 L 233.371094 143.757812 C 232.195312 144.050781 231.027344 144.355469 229.867188 144.671875 C 232.355469 141.855469 234.140625 139.199219 235.230469 136.699219 C 235.601562 135.839844 235.203125 134.847656 234.347656 134.480469 C 233.488281 134.109375 232.496094 134.503906 232.125 135.363281 C 230.675781 138.707031 227.683594 142.476562 223.15625 146.671875 C 220.457031 147.546875 217.789062 148.492188 215.164062 149.507812 C 215.492188 149.070312 215.792969 148.648438 216.0625 148.230469 C 217.539062 145.957031 218.183594 143.957031 217.996094 142.230469 C 217.894531 141.296875 217.0625 140.628906 216.132812 140.722656 C 215.199219 140.824219 214.527344 141.65625 214.625 142.585938 C 214.726562 143.519531 214.257812 144.789062 213.222656 146.386719 C 212.070312 148.160156 210.261719 150.230469 207.800781 152.597656 C 207.175781 152.878906 206.546875 153.164062 205.925781 153.460938 C 205.859375 153.488281 205.796875 153.519531 205.738281 153.546875 C 205.160156 153.816406 204.582031 154.097656 204.007812 154.375 L 204.292969 153.953125 C 205.8125 151.65625 206.777344 149.515625 207.191406 147.535156 C 207.382812 146.621094 206.796875 145.726562 205.882812 145.535156 C 204.964844 145.34375 204.070312 145.929688 203.878906 146.847656 C 203.5 148.660156 202.523438 150.527344 201.375 152.238281 C 198.527344 156.480469 198.925781 155.824219 198.910156 151.53125 L 198.882812 143.902344 C 198.855469 136.496094 199.136719 137.722656 205.847656 132.535156 C 218.453125 135.296875 222.496094 132.714844 209.546875 129.878906 C 211.742188 128.417969 214.023438 127.097656 216.398438 125.902344 C 216.449219 125.882812 216.5 125.855469 216.554688 125.824219 C 219.019531 124.601562 221.578125 123.515625 224.238281 122.582031 C 238.339844 127.980469 246.203125 127.359375 229.476562 120.960938 C 245.535156 116.632812 235.367188 115.214844 223.828125 119.148438 C 223.761719 119.164062 223.695312 119.1875 223.628906 119.210938 C 222.148438 119.71875 220.695312 120.273438 219.265625 120.867188 C 219.566406 120.132812 219.8125 119.460938 220 118.847656 C 221.015625 115.46875 219.574219 108.496094 216.75 117.882812 C 216.347656 119.210938 215.585938 120.953125 214.46875 123.089844 C 212.597656 124.046875 210.769531 125.082031 209.003906 126.203125 C 209.167969 125.652344 209.308594 125.109375 209.429688 124.578125 C 210.75 118.757812 209.074219 110.867188 206.128906 123.835938 C 205.734375 125.585938 205.054688 127.519531 204.089844 129.621094 C 199.117188 133.417969 198.847656 135.996094 198.828125 129.796875 C 198.796875 120.1875 196.074219 119.90625 202.191406 116.582031 C 203.613281 115.808594 205.003906 115.015625 206.363281 114.207031 C 208.183594 114.175781 209.722656 114.207031 210.96875 114.289062 C 218.902344 114.832031 216.613281 111.34375 211.535156 110.9375 C 212.722656 110.140625 213.878906 109.328125 215.015625 108.496094 C 215.058594 108.464844 215.105469 108.4375 215.148438 108.402344 L 215.613281 108.058594 C 220.214844 104.640625 224.371094 100.960938 228.078125 97.015625 C 229.265625 97.347656 230.449219 97.886719 231.628906 98.644531 L 231.628906 98.648438 C 244.824219 107.078125 239.265625 99.511719 233.457031 95.800781 L 233.457031 95.804688 L 233.453125 95.800781 C 232.265625 95.042969 231.0625 94.449219 229.851562 94.035156 C 230.53125 92.351562 230.953125 90.816406 231.121094 89.429688 C 231.503906 86.171875 229.21875 76.582031 227.75 89.046875 C 227.578125 90.496094 227.023438 92.210938 226.085938 94.191406 C 223.492188 97.003906 220.660156 99.671875 217.605469 102.203125 L 217.609375 102.160156 C 217.914062 98.507812 215.417969 87.507812 214.222656 101.882812 C 214.117188 103.214844 213.644531 104.558594 212.816406 105.917969 C 208.542969 109.027344 203.863281 111.910156 198.796875 114.558594 L 198.726562 94.082031 C 198.703125 87.246094 197.546875 89.757812 202.828125 87.242188 C 203.796875 88.496094 204.769531 89.515625 205.75 90.296875 C 208.484375 92.476562 216.492188 94.515625 207.859375 87.648438 C 207.203125 87.132812 206.542969 86.460938 205.875 85.644531 C 207.191406 84.886719 208.484375 84.0625 209.757812 83.160156 C 220.777344 86.195312 223.457031 83.425781 213.101562 80.574219 C 214.246094 79.613281 215.371094 78.589844 216.472656 77.503906 C 218.15625 77.660156 219.761719 77.699219 221.292969 77.621094 C 228.070312 77.269531 232.425781 73.660156 221.121094 74.242188 C 220.605469 74.269531 220.074219 74.28125 219.527344 74.277344 C 238.597656 52.699219 213.015625 76.238281 210.804688 78.082031 L 210.796875 78.085938 C 210.765625 77.640625 210.742188 77.1875 210.722656 76.730469 C 210.296875 66.363281 207.003906 68.734375 207.339844 76.863281 C 207.390625 78.113281 207.484375 79.335938 207.617188 80.53125 C 204.761719 82.539062 201.789062 84.148438 198.695312 85.359375 C 198.65625 74.027344 195.65625 73.730469 203.019531 67.214844 C 217.433594 67.988281 222.628906 64.882812 206.625 64.023438 C 220.25 51.96875 212.882812 53.972656 201.347656 64.179688 C 201.3125 64.207031 201.277344 64.238281 201.246094 64.265625 L 198.636719 66.582031 L 198.617188 61.5625 C 198.601562 56.414062 201.550781 52.554688 205.019531 48.753906 C 217.863281 34.65625 210.425781 37.28125 198.585938 52.476562 L 198.578125 49.261719 L 198.570312 46.859375 C 198.546875 39.914062 198.78125 41.316406 203.277344 35.597656 C 213.625 36.339844 214.558594 33.015625 205.800781 32.382812 C 219.660156 14.75 207.636719 24.570312 198.539062 36.144531 C 198.53125 33.292969 198.523438 30.558594 198.507812 27.761719 C 198.5 24.859375 213.726562 5.527344 198.488281 22.40625 C 198.371094 0.230469 197.789062 19.835938 197.523438 27.832031 C 184.492188 12.511719 180.921875 13.539062 194.4375 29.425781 C 196.648438 32.023438 197.425781 30.886719 197.335938 33.632812 L 197.203125 37.84375 L 197.167969 37.886719 C 196.949219 38.167969 196.832031 38.492188 196.808594 38.824219 L 191.941406 35.851562 C 188.277344 32.851562 185.800781 34.972656 192.695312 39.550781 C 195.949219 41.710938 197.066406 42.132812 196.902344 47.464844 L 196.882812 48.097656 L 196.683594 54.617188 L 187.222656 47.996094 C 186.34375 33.347656 182.898438 32.535156 183.792969 47.4375 C 172.246094 48.957031 173.433594 52.207031 185.148438 50.667969 C 189.871094 53.972656 196.648438 55.644531 196.464844 61.566406 L 196.214844 69.742188 L 189.667969 66.148438 C 187.367188 53.894531 183.515625 51.765625 185.824219 64.042969 C 174.203125 57.65625 174.574219 62.59375 186.8125 67.992188 C 196.304688 72.1875 196.179688 70.777344 195.730469 85.382812 L 182.707031 76.203125 C 178.566406 73.28125 177.449219 76.644531 179.734375 78.253906 C 166.347656 77.761719 172.804688 81.378906 184.796875 81.816406 L 193.261719 87.785156 L 193.613281 88.03125 C 194.894531 88.9375 195.578125 90.300781 195.53125 91.867188 L 195.496094 93.039062 L 195.46875 93.933594 L 195.289062 99.597656 L 179.710938 91.398438 C 171.925781 87.296875 170.976562 90.667969 175.726562 93.167969 C 174.089844 93.285156 172.609375 93.472656 171.292969 93.730469 C 169.773438 94.023438 168.441406 94.425781 167.308594 94.921875 C 163.457031 96.597656 160.660156 101.285156 168.875 97.925781 C 169.730469 97.578125 170.753906 97.285156 171.945312 97.050781 C 179.953125 95.480469 195.351562 97.722656 195.035156 108.035156 L 194.792969 115.753906 L 190.8125 110.695312 C 190.785156 110.65625 190.757812 110.617188 190.722656 110.585938 L 183.523438 101.433594 C 182.945312 100.699219 181.878906 100.574219 181.144531 101.152344 C 180.40625 101.730469 180.28125 102.796875 180.859375 103.53125 L 187.148438 111.527344 C 186.632812 111.839844 185.957031 112.109375 185.121094 112.339844 C 184.945312 112.359375 184.769531 112.402344 184.605469 112.472656 C 183.382812 112.757812 181.859375 112.96875 180.042969 113.097656 C 178.761719 113.1875 177.351562 113.238281 175.8125 113.238281 C 170.167969 102.679688 166.5625 103.109375 171.9375 113.152344 C 168.664062 113.023438 164.933594 112.738281 160.746094 112.289062 C 156.832031 98.757812 153.574219 99.667969 157.488281 113.207031 C 148.0625 120.425781 150.386719 122.90625 159.921875 115.601562 C 164.023438 116.050781 167.714844 116.347656 170.992188 116.503906 C 165.0625 122.816406 168.378906 124.226562 175.527344 116.621094 C 177.261719 116.625 178.84375 116.578125 180.28125 116.472656 C 180.601562 116.449219 180.921875 116.425781 181.230469 116.394531 L 178.074219 120.371094 C 172.460938 127.425781 182.546875 120.1875 186.28125 115.484375 C 187.457031 115.132812 188.441406 114.695312 189.234375 114.171875 C 193.324219 119.367188 194.707031 118.636719 194.527344 124.417969 L 194.460938 126.609375 C 194.292969 132.007812 192.023438 130.195312 185.933594 130.222656 C 178.0625 123.300781 174.464844 124.644531 180.796875 130.21875 C 180.085938 130.214844 179.375 130.210938 178.664062 130.203125 L 176.753906 130.183594 C 166.5 122.890625 159.039062 121.738281 170.765625 130.074219 C 150.910156 129.605469 160.933594 133.347656 176.105469 133.554688 C 176.152344 133.558594 176.203125 133.558594 176.253906 133.558594 L 177.28125 133.570312 C 167.621094 141.410156 173.261719 141.191406 182.601562 133.605469 C 183.457031 133.605469 184.308594 133.605469 185.160156 133.605469 C 185.253906 133.613281 185.339844 133.609375 185.433594 133.605469 C 193.050781 133.582031 194.316406 131.398438 194.105469 138.125 L 193.613281 154.101562 C 193.539062 156.441406 194.105469 158.246094 192.414062 155.679688 C 183.996094 142.945312 185.785156 151.792969 189.585938 157.542969 C 189.679688 157.683594 189.773438 157.824219 189.871094 157.964844 C 189.292969 157.6875 188.71875 157.414062 188.144531 157.140625 C 188.082031 157.105469 188.019531 157.074219 187.949219 157.050781 C 187.328125 156.757812 186.703125 156.46875 186.078125 156.1875 C 183.613281 153.824219 181.804688 151.753906 180.652344 149.976562 C 173.175781 138.476562 175.121094 147.683594 177.8125 151.816406 C 178.082031 152.230469 178.382812 152.660156 178.707031 153.097656 C 178.199219 152.898438 177.691406 152.703125 177.175781 152.511719 L 177.121094 152.492188 L 177.078125 152.480469 C 175.953125 152.058594 174.816406 151.648438 173.675781 151.253906 C 172.695312 150.914062 171.710938 150.582031 170.722656 150.265625 C 167.257812 147.050781 164.691406 144.09375 163.027344 141.382812 C 159.175781 135.101562 157.347656 138.253906 159.695312 142.375 C 160.761719 144.253906 162.203125 146.214844 164.011719 148.261719 C 162.847656 147.941406 161.683594 147.636719 160.507812 147.347656 C 151.585938 134.90625 145.128906 131.730469 155.503906 146.191406 C 147.015625 144.378906 143.609375 147.441406 148.910156 148.359375 C 140.339844 154.984375 144.230469 156.253906 153.351562 149.199219 C 155.246094 149.585938 157.125 150.003906 158.984375 150.457031 C 159.046875 150.476562 159.117188 150.496094 159.1875 150.503906 C 162.589844 151.335938 165.933594 152.273438 169.21875 153.320312 C 169.289062 153.347656 169.359375 153.371094 169.433594 153.390625 L 169.621094 153.453125 C 156.671875 155.480469 165.414062 157.53125 176.371094 155.8125 C 178.015625 156.4375 179.648438 157.089844 181.265625 157.765625 C 170.367188 159.316406 176.273438 161.894531 187.066406 160.363281 C 190.363281 161.929688 193.679688 162.300781 193.113281 165.824219 C 191.871094 173.585938 185.425781 173.578125 175.996094 176.023438 C 166.882812 169.273438 163.253906 170.792969 171.707031 177.050781 C 170.386719 177.347656 169.042969 177.625 167.667969 177.890625 C 165.601562 176.375 164.019531 175.257812 162.925781 174.539062 C 155.257812 169.511719 159.390625 176.152344 163.03125 178.714844 C 160.855469 179.070312 158.617188 179.386719 156.316406 179.679688 C 147.910156 170.582031 143.785156 171.109375 152.148438 180.15625 C 142.59375 181.15625 143.042969 184.4375 150.472656 183.726562 C 132.035156 197.738281 150.375 188.835938 156.429688 183.074219 C 158.328125 182.839844 160.183594 182.582031 162 182.304688 C 161.546875 182.761719 161.109375 183.214844 160.675781 183.671875 C 153.875 190.890625 153.761719 195.945312 163.144531 185.988281 C 164.621094 184.417969 166.253906 182.84375 168.039062 181.265625 C 170.582031 180.777344 173.035156 180.246094 175.402344 179.660156 C 176.925781 179.289062 178.417969 178.886719 179.871094 178.472656 C 174.902344 185.382812 179.238281 185.144531 185.253906 176.777344 C 194.207031 173.691406 192.558594 171.589844 193.234375 180.621094 C 193.605469 185.613281 193.757812 187.949219 188.164062 191.8125 L 185.492188 189.910156 C 178.453125 184.894531 176.566406 187.703125 182.648438 192.042969 L 185.132812 193.8125 C 184.097656 194.460938 183.066406 195.082031 182.03125 195.667969 L 179.101562 193.851562 C 174.710938 191.128906 173.214844 194.1875 176.992188 196.53125 L 178.585938 197.515625 C 176.722656 198.453125 174.851562 199.296875 172.96875 200.042969 C 171.839844 199.644531 170.785156 199.105469 169.785156 198.421875 C 169.230469 198.039062 168.6875 197.609375 168.167969 197.128906 C 162.972656 192.371094 162.078125 196.132812 165.824219 199.574219 C 166.472656 200.175781 167.15625 200.714844 167.867188 201.199219 C 168.078125 201.347656 168.296875 201.492188 168.519531 201.625 C 167.765625 201.867188 167.007812 202.085938 166.253906 202.296875 C 165.164062 202.597656 164.078125 202.867188 162.984375 203.105469 C 160.980469 202 159.253906 200.964844 157.792969 200.007812 C 151.289062 195.714844 150.574219 199.242188 155.550781 202.578125 C 156.234375 203.039062 156.980469 203.515625 157.78125 204 C 155.722656 204.261719 153.726562 204.3125 151.644531 204.363281 L 148.398438 200.207031 C 144.625 195.390625 141.960938 197.664062 145.351562 202 L 147.242188 204.417969 L 147.167969 204.414062 L 147.128906 204.414062 C 145.597656 204.339844 144.058594 204.207031 142.511719 204.019531 C 135.46875 203.160156 135.984375 206.558594 141.257812 207.265625 C 141.84375 207.34375 142.429688 207.417969 143.015625 207.480469 L 141.160156 209.144531 C 136.75 213.109375 139.082031 215.566406 143.324219 211.753906 L 147.703125 207.820312 C 149.246094 207.875 150.777344 207.878906 152.308594 207.828125 C 151.371094 209.09375 150.601562 210.148438 149.996094 210.996094 C 146.394531 216.066406 148.789062 218.542969 152.886719 212.777344 C 153.808594 211.476562 155.097656 209.722656 156.753906 207.523438 C 159.023438 207.289062 161.28125 206.925781 163.523438 206.445312 C 162.726562 207.707031 162.023438 208.984375 161.414062 210.289062 C 160.996094 211.179688 160.625 212.082031 160.296875 212.988281 C 157.789062 219.964844 159.421875 225.84375 163.367188 214.445312 C 163.683594 213.523438 164.054688 212.617188 164.472656 211.714844 C 165.527344 209.460938 166.902344 207.269531 168.601562 205.136719 C 171.078125 204.390625 173.542969 203.496094 175.988281 202.449219 C 175.777344 202.800781 175.578125 203.15625 175.390625 203.519531 C 174.796875 204.648438 174.316406 205.796875 173.9375 206.972656 C 171.933594 213.175781 174.824219 217.054688 176.847656 209.070312 C 177.191406 207.710938 177.707031 206.378906 178.386719 205.082031 C 179.484375 202.984375 181.023438 200.953125 183.011719 198.996094 C 183.976562 198.460938 184.945312 197.894531 185.902344 197.308594 L 185.613281 199.199219 L 185.507812 199.917969 C 185.265625 201.503906 188.308594 204.0625 189.105469 198.800781 L 189.703125 194.851562 C 193.402344 192.332031 192.363281 192.742188 192.339844 197.554688 C 192.285156 207.019531 192.617188 207.292969 182.367188 215.253906 C 179.675781 217.347656 177.710938 218.59375 176.480469 219 C 173.449219 219.980469 175.433594 224.800781 183.90625 218.347656 C 183.742188 219.34375 183.523438 220.234375 183.253906 221.019531 C 182.972656 221.835938 182.636719 222.535156 182.238281 223.109375 C 177.683594 229.765625 184.308594 228.324219 186.449219 222.121094 C 187.089844 220.277344 187.472656 218.019531 187.609375 215.363281 C 194.285156 209.746094 191.761719 213.929688 191.492188 222.671875 L 190.746094 246.875 L 126.8125 245.96875 L 125.90625 77.554688 C 174.367188 77.554688 166.921875 73.035156 123.640625 73.035156 L 121.375 73.035156 L 121.375 251.394531 L 193.007812 251.394531 C 193.867188 251.796875 194.859375 251.71875 195.800781 251.394531 L 269.117188 251.394531 L 269.117188 73.035156 L 266.855469 73.035156 C 233.34375 73.035156 226.714844 77.554688 264.589844 77.554688 L 264.589844 246.875 L 199.214844 246.875 Z M 199.214844 246.871094 " fill-opacity="1" fill-rule="evenodd"/></g><g transform="matrix(1, 0, 0, 1, 161, 248)"><g clip-path="url(#729463e816)"><g fill="#000000" fill-opacity="1"><g transform="translate(0.665758, 92.637301)"><g><path d="M 5.625 -68.765625 L 26.171875 -68.765625 L 26.171875 -62.046875 L 13.71875 -62.046875 L 13.71875 -38.515625 L 25.515625 -38.515625 L 25.515625 -31.796875 L 13.71875 -31.796875 L 13.71875 -6.71875 L 26.328125 -6.71875 L 26.328125 0 L 5.625 0 Z M 5.625 -68.765625 "/></g></g></g><g fill="#000000" fill-opacity="1"><g transform="translate(30.785537, 92.637301)"><g><path d="M 4.84375 -49.3125 C 4.84375 -59.414062 7.238281 -65.691406 12.03125 -68.140625 C 13.90625 -69.078125 15.960938 -69.554688 18.203125 -69.578125 C 22.398438 -69.578125 25.4375 -68.6875 27.3125 -66.90625 C 29.1875 -65.125 30.394531 -62.765625 30.9375 -59.828125 C 31.488281 -56.898438 31.765625 -53.34375 31.765625 -49.15625 L 31.765625 -43.84375 L 23.953125 -43.84375 L 23.953125 -52.78125 C 23.953125 -56.300781 23.59375 -58.816406 22.875 -60.328125 C 22.15625 -61.835938 20.75 -62.59375 18.65625 -62.59375 C 16.5625 -62.59375 15.082031 -61.640625 14.21875 -59.734375 C 13.363281 -57.835938 12.9375 -54.476562 12.9375 -49.65625 L 12.9375 -20.75 C 12.9375 -15.25 13.3125 -11.425781 14.0625 -9.28125 C 14.820312 -7.132812 16.3125 -6.0625 18.53125 -6.0625 C 20.757812 -6.0625 22.285156 -7.164062 23.109375 -9.375 C 23.929688 -11.59375 24.34375 -15.4375 24.34375 -20.90625 L 24.34375 -29.84375 L 18.75 -29.84375 L 18.75 -36.09375 L 31.765625 -36.09375 L 31.765625 0 L 27.5 0 L 26.40625 -5.3125 C 24.875 -1.320312 21.9375 0.671875 17.59375 0.671875 C 13.257812 0.671875 10.050781 -1.015625 7.96875 -4.390625 C 5.882812 -7.765625 4.84375 -13.125 4.84375 -20.46875 Z M 4.84375 -49.3125 "/></g></g></g></g></g><g transform="matrix(1, 0, 0, 1, 106, 352)"><g clip-path="url(#4b70d8d8f4)"><g clip-path="url(#9e6dc9f1a1)"><g fill="#000000" fill-opacity="1"><g transform="translate(1.283908, 14.658867)"><g><path d="M 0.359375 -11.25 L 0.359375 -13.8125 L 10.578125 -13.8125 L 10.578125 -11.25 L 6.90625 -11.25 L 6.90625 0 L 4.046875 0 L 4.046875 -11.25 Z M 0.359375 -11.25 "/></g></g></g></g><g clip-path="url(#d3cb36f1a0)"><g fill="#000000" fill-opacity="1"><g transform="translate(15.469405, 14.658867)"><g><path d="M 13.046875 -0.4375 L 13.046875 -0.015625 L 9.890625 -0.015625 L 7.046875 -4.578125 L 4.578125 -4.578125 L 4.578125 -0.015625 L 1.625 -0.015625 L 1.625 -13.828125 C 2.601562 -13.828125 3.582031 -13.832031 4.5625 -13.84375 C 5.539062 -13.851562 6.523438 -13.847656 7.515625 -13.828125 C 8.566406 -13.828125 9.453125 -13.601562 10.171875 -13.15625 C 10.898438 -12.707031 11.453125 -12.125 11.828125 -11.40625 C 12.203125 -10.6875 12.390625 -9.914062 12.390625 -9.09375 C 12.390625 -8.21875 12.175781 -7.414062 11.75 -6.6875 C 11.320312 -5.96875 10.710938 -5.414062 9.921875 -5.03125 Z M 7.5 -7 C 8.113281 -7 8.609375 -7.207031 8.984375 -7.625 C 9.359375 -8.050781 9.539062 -8.5625 9.53125 -9.15625 C 9.53125 -9.738281 9.347656 -10.234375 8.984375 -10.640625 C 8.628906 -11.046875 8.132812 -11.25 7.5 -11.25 L 4.53125 -11.25 L 4.53125 -7 Z M 7.5 -7 "/></g></g></g></g><g clip-path="url(#2c5ec337d0)"><g fill="#000000" fill-opacity="1"><g transform="translate(32.357204, 14.658867)"><g><path d="M 10.0625 -11.234375 L 4.578125 -11.234375 L 4.578125 -8.421875 L 9.703125 -8.421875 L 9.703125 -5.84375 L 4.578125 -5.84375 L 4.578125 -2.6875 L 10.21875 -2.6875 L 10.21875 0 L 1.59375 0 L 1.59375 -13.8125 L 10.0625 -13.8125 Z M 10.0625 -11.234375 "/></g></g></g></g><g clip-path="url(#a0375df7cf)"><g fill="#000000" fill-opacity="1"><g transform="translate(46.897746, 14.658867)"><g><path d="M 10.0625 -11.234375 L 4.578125 -11.234375 L 4.578125 -8.421875 L 9.703125 -8.421875 L 9.703125 -5.84375 L 4.578125 -5.84375 L 4.578125 -2.6875 L 10.21875 -2.6875 L 10.21875 0 L 1.59375 0 L 1.59375 -13.8125 L 10.0625 -13.8125 Z M 10.0625 -11.234375 "/></g></g></g></g><g fill="#000000" fill-opacity="1"><g transform="translate(61.438289, 14.658867)"><g/></g></g><g clip-path="url(#fbe6dcedef)"><g fill="#000000" fill-opacity="1"><g transform="translate(69.528844, 14.658867)"><g><path d="M 11.828125 -9.703125 C 11.828125 -9.203125 11.703125 -8.71875 11.453125 -8.25 C 11.210938 -7.789062 10.875 -7.425781 10.4375 -7.15625 C 11.082031 -6.894531 11.570312 -6.492188 11.90625 -5.953125 C 12.238281 -5.421875 12.40625 -4.796875 12.40625 -4.078125 C 12.40625 -2.867188 12.019531 -1.882812 11.25 -1.125 C 10.488281 -0.375 9.414062 0 8.03125 0 L 1.625 0 L 1.625 -13.796875 L 7.484375 -13.796875 C 8.328125 -13.796875 9.070312 -13.632812 9.71875 -13.3125 C 10.375 -12.988281 10.890625 -12.523438 11.265625 -11.921875 C 11.640625 -11.316406 11.828125 -10.578125 11.828125 -9.703125 Z M 4.5625 -11.265625 L 4.5625 -8.125 L 7.265625 -8.125 C 7.765625 -8.125 8.160156 -8.253906 8.453125 -8.515625 C 8.753906 -8.785156 8.910156 -9.148438 8.921875 -9.609375 C 8.929688 -10.109375 8.785156 -10.507812 8.484375 -10.8125 C 8.179688 -11.113281 7.773438 -11.265625 7.265625 -11.265625 Z M 4.5625 -5.71875 L 4.5625 -2.5625 L 7.828125 -2.5625 C 8.328125 -2.5625 8.722656 -2.695312 9.015625 -2.96875 C 9.304688 -3.25 9.46875 -3.617188 9.5 -4.078125 C 9.507812 -4.359375 9.460938 -4.617188 9.359375 -4.859375 C 9.253906 -5.109375 9.09375 -5.304688 8.875 -5.453125 C 8.707031 -5.566406 8.523438 -5.640625 8.328125 -5.671875 C 8.128906 -5.703125 7.921875 -5.71875 7.703125 -5.71875 Z M 4.5625 -5.71875 "/></g></g></g></g><g clip-path="url(#9bee3090b9)"><g fill="#000000" fill-opacity="1"><g transform="translate(86.041863, 14.658867)"><g><path d="M 4.03125 -2.296875 L 2.953125 0 L -0.125 0 L -0.125 -0.390625 L 6.234375 -13.9375 L 7.59375 -13.9375 L 13.90625 -0.390625 L 13.90625 0 L 10.859375 0 L 9.765625 -2.296875 Z M 5 -4.78125 L 8.828125 -4.78125 L 6.90625 -9.328125 Z M 5 -4.78125 "/></g></g></g></g><g clip-path="url(#f0f7094ae7)"><g fill="#000000" fill-opacity="1"><g transform="translate(103.107175, 14.658867)"><g><path d="M 13.046875 -0.4375 L 13.046875 -0.015625 L 9.890625 -0.015625 L 7.046875 -4.578125 L 4.578125 -4.578125 L 4.578125 -0.015625 L 1.625 -0.015625 L 1.625 -13.828125 C 2.601562 -13.828125 3.582031 -13.832031 4.5625 -13.84375 C 5.539062 -13.851562 6.523438 -13.847656 7.515625 -13.828125 C 8.566406 -13.828125 9.453125 -13.601562 10.171875 -13.15625 C 10.898438 -12.707031 11.453125 -12.125 11.828125 -11.40625 C 12.203125 -10.6875 12.390625 -9.914062 12.390625 -9.09375 C 12.390625 -8.21875 12.175781 -7.414062 11.75 -6.6875 C 11.320312 -5.96875 10.710938 -5.414062 9.921875 -5.03125 Z M 7.5 -7 C 8.113281 -7 8.609375 -7.207031 8.984375 -7.625 C 9.359375 -8.050781 9.539062 -8.5625 9.53125 -9.15625 C 9.53125 -9.738281 9.347656 -10.234375 8.984375 -10.640625 C 8.628906 -11.046875 8.132812 -11.25 7.5 -11.25 L 4.53125 -11.25 L 4.53125 -7 Z M 7.5 -7 "/></g></g></g></g><g clip-path="url(#6637810276)"><g fill="#000000" fill-opacity="1"><g transform="translate(119.994974, 14.658867)"><g><path d="M 13.046875 -0.4375 L 13.046875 -0.015625 L 9.890625 -0.015625 L 7.046875 -4.578125 L 4.578125 -4.578125 L 4.578125 -0.015625 L 1.625 -0.015625 L 1.625 -13.828125 C 2.601562 -13.828125 3.582031 -13.832031 4.5625 -13.84375 C 5.539062 -13.851562 6.523438 -13.847656 7.515625 -13.828125 C 8.566406 -13.828125 9.453125 -13.601562 10.171875 -13.15625 C 10.898438 -12.707031 11.453125 -12.125 11.828125 -11.40625 C 12.203125 -10.6875 12.390625 -9.914062 12.390625 -9.09375 C 12.390625 -8.21875 12.175781 -7.414062 11.75 -6.6875 C 11.320312 -5.96875 10.710938 -5.414062 9.921875 -5.03125 Z M 7.5 -7 C 8.113281 -7 8.609375 -7.207031 8.984375 -7.625 C 9.359375 -8.050781 9.539062 -8.5625 9.53125 -9.15625 C 9.53125 -9.738281 9.347656 -10.234375 8.984375 -10.640625 C 8.628906 -11.046875 8.132812 -11.25 7.5 -11.25 L 4.53125 -11.25 L 4.53125 -7 Z M 7.5 -7 "/></g></g></g></g><g clip-path="url(#0dd1402c9e)"><g fill="#000000" fill-opacity="1"><g transform="translate(136.882772, 14.658867)"><g><path d="M 7.75 -2.34375 L 7.75 0 L 0.890625 0 L 0.890625 -2.34375 L 2.84375 -2.34375 L 2.84375 -11.53125 L 1.046875 -11.53125 L 1.046875 -13.8125 L 7.59375 -13.8125 L 7.59375 -11.53125 L 5.796875 -11.53125 L 5.796875 -2.34375 Z M 7.75 -2.34375 "/></g></g></g></g><g clip-path="url(#7ba95ec4eb)"><g fill="#000000" fill-opacity="1"><g transform="translate(148.780197, 14.658867)"><g><path d="M 10.0625 -11.234375 L 4.578125 -11.234375 L 4.578125 -8.421875 L 9.703125 -8.421875 L 9.703125 -5.84375 L 4.578125 -5.84375 L 4.578125 -2.6875 L 10.21875 -2.6875 L 10.21875 0 L 1.59375 0 L 1.59375 -13.8125 L 10.0625 -13.8125 Z M 10.0625 -11.234375 "/></g></g></g></g><g clip-path="url(#e160c1a64a)"><g fill="#000000" fill-opacity="1"><g transform="translate(163.32074, 14.658867)"><g><path d="M 13.046875 -0.4375 L 13.046875 -0.015625 L 9.890625 -0.015625 L 7.046875 -4.578125 L 4.578125 -4.578125 L 4.578125 -0.015625 L 1.625 -0.015625 L 1.625 -13.828125 C 2.601562 -13.828125 3.582031 -13.832031 4.5625 -13.84375 C 5.539062 -13.851562 6.523438 -13.847656 7.515625 -13.828125 C 8.566406 -13.828125 9.453125 -13.601562 10.171875 -13.15625 C 10.898438 -12.707031 11.453125 -12.125 11.828125 -11.40625 C 12.203125 -10.6875 12.390625 -9.914062 12.390625 -9.09375 C 12.390625 -8.21875 12.175781 -7.414062 11.75 -6.6875 C 11.320312 -5.96875 10.710938 -5.414062 9.921875 -5.03125 Z M 7.5 -7 C 8.113281 -7 8.609375 -7.207031 8.984375 -7.625 C 9.359375 -8.050781 9.539062 -8.5625 9.53125 -9.15625 C 9.53125 -9.738281 9.347656 -10.234375 8.984375 -10.640625 C 8.628906 -11.046875 8.132812 -11.25 7.5 -11.25 L 4.53125 -11.25 L 4.53125 -7 Z M 7.5 -7 "/></g></g></g></g></g></g></svg>